<svg width="44" height="44" viewBox="0 0 44 44" fill="none" xmlns="http://www.w3.org/2000/svg">
<rect width="44" height="44" rx="8" fill="#3AB44A"/>
<path d="M19.5984 29.7998C19.5984 30.7939 18.7925 31.5998 17.7984 31.5998C16.8043 31.5998 15.9984 30.7939 15.9984 29.7998C15.9984 28.8057 16.8043 27.9998 17.7984 27.9998C18.7925 27.9998 19.5984 28.8057 19.5984 29.7998Z" fill="white"/>
<path d="M27.9984 29.7998C27.9984 30.7939 27.1925 31.5998 26.1984 31.5998C25.2043 31.5998 24.3984 30.7939 24.3984 29.7998C24.3984 28.8057 25.2043 27.9998 26.1984 27.9998C27.1925 27.9998 27.9984 28.8057 27.9984 29.7998Z" fill="white"/>
<path d="M13.5984 14.7998C12.9357 14.7998 12.3984 15.3371 12.3984 15.9998V27.9998C12.3984 28.6625 12.9357 29.1998 13.5984 29.1998H14.8584C15.1364 27.8305 16.3471 26.7998 17.7984 26.7998C19.2498 26.7998 20.4605 27.8305 20.7384 29.1998H21.9984C22.6612 29.1998 23.1984 28.6625 23.1984 27.9998V15.9998C23.1984 15.3371 22.6612 14.7998 21.9984 14.7998H13.5984Z" fill="white"/>
<path d="M26.7984 18.3998C26.1357 18.3998 25.5984 18.9371 25.5984 19.5998V26.8598C25.7923 26.8205 25.993 26.7998 26.1984 26.7998C27.6498 26.7998 28.8605 27.8305 29.1384 29.1998H30.3984C31.0612 29.1998 31.5984 28.6625 31.5984 27.9998V21.9998C31.5984 21.6815 31.472 21.3763 31.247 21.1513L28.847 18.7513C28.6219 18.5262 28.3167 18.3998 27.9984 18.3998H26.7984Z" fill="white"/>
</svg>
