<svg width="44" height="44" viewBox="0 0 44 44" fill="none" xmlns="http://www.w3.org/2000/svg">
<rect width="44" height="44" rx="8" fill="#3AB44A"/>
<path d="M25.5992 17.2001C25.5992 19.1883 23.9874 20.8001 21.9992 20.8001C20.011 20.8001 18.3992 19.1883 18.3992 17.2001C18.3992 15.2119 20.011 13.6001 21.9992 13.6001C23.9874 13.6001 25.5992 15.2119 25.5992 17.2001Z" fill="white"/>
<path d="M31.5992 19.6001C31.5992 20.9256 30.5247 22.0001 29.1992 22.0001C27.8737 22.0001 26.7992 20.9256 26.7992 19.6001C26.7992 18.2746 27.8737 17.2001 29.1992 17.2001C30.5247 17.2001 31.5992 18.2746 31.5992 19.6001Z" fill="white"/>
<path d="M26.7992 28.0001C26.7992 25.3491 24.6502 23.2001 21.9992 23.2001C19.3483 23.2001 17.1992 25.3491 17.1992 28.0001V31.6001H26.7992V28.0001Z" fill="white"/>
<path d="M17.1992 19.6001C17.1992 20.9256 16.1247 22.0001 14.7992 22.0001C13.4737 22.0001 12.3992 20.9256 12.3992 19.6001C12.3992 18.2746 13.4737 17.2001 14.7992 17.2001C16.1247 17.2001 17.1992 18.2746 17.1992 19.6001Z" fill="white"/>
<path d="M29.1992 31.6001V28.0001C29.1992 26.7351 28.873 25.5463 28.3001 24.5133C28.5875 24.4394 28.8888 24.4001 29.1992 24.4001C31.1874 24.4001 32.7992 26.0119 32.7992 28.0001V31.6001H29.1992Z" fill="white"/>
<path d="M15.6983 24.5133C15.1254 25.5463 14.7992 26.7351 14.7992 28.0001V31.6001H11.1992V28.0001C11.1992 26.0119 12.811 24.4001 14.7992 24.4001C15.1097 24.4001 15.4109 24.4394 15.6983 24.5133Z" fill="white"/>
</svg>
