<svg width="34" height="34" viewBox="0 0 34 34" fill="none" xmlns="http://www.w3.org/2000/svg">
<rect width="34" height="34" rx="17" fill="#F0FDF4"/>
<path fill-rule="evenodd" clip-rule="evenodd" d="M11.4426 10.9382C11.4426 10.2651 11.9882 9.71949 12.6613 9.71949L23.0027 9.71949C23.6758 9.71949 24.2215 10.2651 24.2215 10.9382L24.2215 21.2797C24.2215 21.9528 23.6758 22.4984 23.0027 22.4984C22.3297 22.4984 21.784 21.9528 21.784 21.2797L21.784 13.8806L11.7995 23.865C11.3236 24.341 10.5519 24.341 10.076 23.865C9.6 23.3891 9.6 22.6174 10.076 22.1415L20.0604 12.157L12.6613 12.157C11.9882 12.157 11.4426 11.6113 11.4426 10.9382Z" fill="#3AB44A"/>
</svg>
