<svg width="20" height="20" viewBox="0 0 20 20" fill="none" xmlns="http://www.w3.org/2000/svg">
<path d="M10.8333 16.6665H5C4.77899 16.6665 4.56702 16.5787 4.41074 16.4224C4.25446 16.2661 4.16667 16.0542 4.16667 15.8332V4.1665C4.16667 3.94549 4.25446 3.73353 4.41074 3.57725C4.56702 3.42097 4.77899 3.33317 5 3.33317H9.16667V5.83317C9.16667 6.49621 9.43006 7.1321 9.8989 7.60094C10.3677 8.06978 11.0036 8.33317 11.6667 8.33317H14.1667V9.99984C14.1667 10.2209 14.2545 10.4328 14.4107 10.5891C14.567 10.7454 14.779 10.8332 15 10.8332C15.221 10.8332 15.433 10.7454 15.5893 10.5891C15.7455 10.4328 15.8333 10.2209 15.8333 9.99984V7.49984C15.8333 7.49984 15.8333 7.49984 15.8333 7.44984C15.8247 7.37328 15.8079 7.29786 15.7833 7.22484V7.14984C15.7433 7.06415 15.6898 6.98539 15.625 6.9165L10.625 1.9165C10.5561 1.85168 10.4774 1.79824 10.3917 1.75817C10.3668 1.75464 10.3415 1.75464 10.3167 1.75817C10.232 1.70962 10.1385 1.67846 10.0417 1.6665H5C4.33696 1.6665 3.70107 1.9299 3.23223 2.39874C2.76339 2.86758 2.5 3.50346 2.5 4.1665V15.8332C2.5 16.4962 2.76339 17.1321 3.23223 17.6009C3.70107 18.0698 4.33696 18.3332 5 18.3332H10.8333C11.0543 18.3332 11.2663 18.2454 11.4226 18.0891C11.5789 17.9328 11.6667 17.7209 11.6667 17.4998C11.6667 17.2788 11.5789 17.0669 11.4226 16.9106C11.2663 16.7543 11.0543 16.6665 10.8333 16.6665ZM10.8333 4.50817L12.9917 6.6665H11.6667C11.4457 6.6665 11.2337 6.57871 11.0774 6.42243C10.9211 6.26615 10.8333 6.05418 10.8333 5.83317V4.50817ZM6.66667 6.6665C6.44565 6.6665 6.23369 6.7543 6.07741 6.91058C5.92113 7.06686 5.83333 7.27882 5.83333 7.49984C5.83333 7.72085 5.92113 7.93281 6.07741 8.08909C6.23369 8.24537 6.44565 8.33317 6.66667 8.33317H7.5C7.72101 8.33317 7.93298 8.24537 8.08926 8.08909C8.24554 7.93281 8.33333 7.72085 8.33333 7.49984C8.33333 7.27882 8.24554 7.06686 8.08926 6.91058C7.93298 6.7543 7.72101 6.6665 7.5 6.6665H6.66667ZM11.6667 9.99984H6.66667C6.44565 9.99984 6.23369 10.0876 6.07741 10.2439C5.92113 10.4002 5.83333 10.6122 5.83333 10.8332C5.83333 11.0542 5.92113 11.2661 6.07741 11.4224C6.23369 11.5787 6.44565 11.6665 6.66667 11.6665H11.6667C11.8877 11.6665 12.0996 11.5787 12.2559 11.4224C12.4122 11.2661 12.5 11.0542 12.5 10.8332C12.5 10.6122 12.4122 10.4002 12.2559 10.2439C12.0996 10.0876 11.8877 9.99984 11.6667 9.99984ZM17.2583 14.4082L15.5917 12.7415C15.5124 12.6656 15.419 12.6062 15.3167 12.5665C15.1138 12.4832 14.8862 12.4832 14.6833 12.5665C14.581 12.6062 14.4876 12.6656 14.4083 12.7415L12.7417 14.4082C12.5847 14.5651 12.4966 14.7779 12.4966 14.9998C12.4966 15.2218 12.5847 15.4346 12.7417 15.5915C12.8986 15.7484 13.1114 15.8366 13.3333 15.8366C13.5553 15.8366 13.7681 15.7484 13.925 15.5915L14.1667 15.3415V17.4998C14.1667 17.7209 14.2545 17.9328 14.4107 18.0891C14.567 18.2454 14.779 18.3332 15 18.3332C15.221 18.3332 15.433 18.2454 15.5893 18.0891C15.7455 17.9328 15.8333 17.7209 15.8333 17.4998V15.3415L16.075 15.5915C16.1525 15.6696 16.2446 15.7316 16.3462 15.7739C16.4477 15.8162 16.5567 15.838 16.6667 15.838C16.7767 15.838 16.8856 15.8162 16.9871 15.7739C17.0887 15.7316 17.1809 15.6696 17.2583 15.5915C17.3364 15.514 17.3984 15.4219 17.4407 15.3203C17.4831 15.2188 17.5048 15.1098 17.5048 14.9998C17.5048 14.8898 17.4831 14.7809 17.4407 14.6794C17.3984 14.5778 17.3364 14.4856 17.2583 14.4082V14.4082ZM10 14.9998C10.221 14.9998 10.433 14.912 10.5893 14.7558C10.7455 14.5995 10.8333 14.3875 10.8333 14.1665C10.8333 13.9455 10.7455 13.7335 10.5893 13.5772C10.433 13.421 10.221 13.3332 10 13.3332H6.66667C6.44565 13.3332 6.23369 13.421 6.07741 13.5772C5.92113 13.7335 5.83333 13.9455 5.83333 14.1665C5.83333 14.3875 5.92113 14.5995 6.07741 14.7558C6.23369 14.912 6.44565 14.9998 6.66667 14.9998H10Z" fill="white"/>
</svg>
