<svg width="70" height="70" viewBox="0 0 70 70" fill="none" xmlns="http://www.w3.org/2000/svg">
<path d="M62.2171 25.2402L69.5993 17.8579C69.9038 17.554 70.0469 17.1241 69.986 16.6984C69.9257 16.2728 69.6677 15.9 69.2907 15.6928L60.4157 10.8195C59.754 10.4564 58.923 10.6983 58.5593 11.36C58.1961 12.0222 58.4375 12.8532 59.0998 13.2164L66.3779 17.2127L60.0424 23.5477L37.2557 11.0353L43.5907 4.7003L49.9946 8.21707C50.6563 8.58023 51.4878 8.33883 51.851 7.6766C52.2147 7.0149 51.9728 6.18337 51.3105 5.82022L44.0073 1.80944C43.4743 1.51678 42.8121 1.61131 42.3827 2.04122L34.9999 9.42404L27.6171 2.04122C27.1872 1.61131 26.5249 1.51731 25.9925 1.80944L0.709115 15.6928C0.332071 15.9 0.0741208 16.2723 0.0137722 16.6984C-0.0471103 17.1241 0.0960172 17.554 0.40043 17.8579L7.78271 25.2402L0.40043 32.6219C0.0960172 32.9263 -0.0471103 33.3557 0.0137722 33.7819C0.0741208 34.2075 0.332071 34.5803 0.709115 34.787L8.34934 38.9825V53.0058C8.34934 53.5052 8.62118 53.9644 9.05857 54.2048L34.3419 68.0876C34.547 68.2003 34.7734 68.2564 34.9999 68.2564C35.2263 68.2564 35.4528 68.2003 35.6578 68.0876L60.9412 54.2048C61.3786 53.9644 61.6504 53.5052 61.6504 53.0058V38.9825L69.2907 34.7875C69.6677 34.5803 69.9257 34.2075 69.986 33.7819C70.0469 33.3562 69.9038 32.9263 69.5993 32.6224L62.2171 25.2402ZM34.9999 37.563L12.5572 25.2396L34.9999 12.9157L57.4426 25.2396L34.9999 37.563ZM26.4096 4.7003L32.744 11.0353L9.95739 23.5477L3.6224 17.2127L26.4096 4.7003ZM9.95846 26.932L32.7451 39.4445L26.4096 45.78L3.6224 33.2676L9.95846 26.932ZM58.9161 52.1972L36.3671 64.5788V50.6031C36.3671 49.8479 35.755 49.2359 34.9999 49.2359C34.2447 49.2359 33.6327 49.8479 33.6327 50.6031V64.5788L11.0837 52.1972V40.4843L25.9925 48.6709C26.1992 48.7841 26.4256 48.8396 26.6499 48.8396C27.004 48.8396 27.3543 48.7018 27.6171 48.4391L34.9999 41.0563L42.3827 48.4391C42.6455 48.7024 42.9958 48.8396 43.3499 48.8396C43.5742 48.8396 43.8006 48.7841 44.0073 48.6709L58.9161 40.4843V52.1972ZM43.5907 45.78L37.2552 39.4439L60.0418 26.932L66.3779 33.267L43.5907 45.78Z" fill="#737376"/>
<path d="M55.3438 10.9617C55.7032 10.9617 56.0546 10.8153 56.3104 10.5606C56.5646 10.3064 56.7109 9.9539 56.7109 9.59448C56.7109 9.23453 56.5646 8.88205 56.3104 8.62784C56.0562 8.37309 55.7032 8.22729 55.3438 8.22729C54.9827 8.22729 54.6313 8.37309 54.3771 8.62784C54.1213 8.88205 53.9766 9.23453 53.9766 9.59448C53.9766 9.9539 54.1213 10.3064 54.3771 10.5606C54.6313 10.8153 54.9843 10.9617 55.3438 10.9617Z" fill="#737376"/>
<path d="M35 44.6969C34.6406 44.6969 34.2876 44.8427 34.0334 45.0974C33.7791 45.3527 33.6328 45.7041 33.6328 46.0641C33.6328 46.4246 33.7791 46.776 34.0334 47.0318C34.2876 47.286 34.6406 47.4313 35 47.4313C35.3594 47.4313 35.7124 47.286 35.9666 47.0318C36.2209 46.776 36.3672 46.4246 36.3672 46.0641C36.3672 45.7041 36.2209 45.3527 35.9666 45.0974C35.7124 44.8427 35.3594 44.6969 35 44.6969Z" fill="#737376"/>
</svg>
