<svg width="854" height="168" viewBox="0 0 854 168" fill="none" xmlns="http://www.w3.org/2000/svg">
<path d="M0 0H854V154C854 161.732 847.732 168 840 168H14C6.268 168 0 161.732 0 154V0Z" fill="#F0FDF4"/>
<mask id="mask0_1141_8270" style="mask-type:alpha" maskUnits="userSpaceOnUse" x="0" y="0" width="854" height="168">
<path opacity="0.18" d="M0 0H854V154C854 161.732 847.732 168 840 168H14C6.268 168 0 161.732 0 154V0Z" fill="#F0FDF4"/>
</mask>
<g mask="url(#mask0_1141_8270)">
<path d="M-31.7461 99.3826C-24.8451 70.03 6.02447 10.6907 74.2942 8.15461C159.631 4.98453 123.275 119.108 318.187 135.31C513.099 151.513 692.358 62.7505 637.823 -4.87791C602.526 -48.6494 419.683 -54.8947 356.564 22.2439C293.444 99.3826 395.95 217.732 595.407 176.521C754.972 143.552 855.458 86.9371 885.755 62.7506" stroke="#3AB44A"/>
</g>
</svg>
